<svg width="170" height="86" viewBox="0 0 170 86" fill="none" xmlns="http://www.w3.org/2000/svg">
<path d="M82.8138 5.60001H102.414V35H52.0138L65.8138 14.6C69.2138 9.20001 75.8138 5.60001 82.8138 5.60001V5.60001Z" fill="#666666"/>
<path d="M120.014 5.60001C127.214 5.60001 133.414 10 135.214 16.4L142.814 35.2H108.614V5.60001H120.014Z" fill="#666666"/>
<path d="M8.61388 53.2L10.2139 46.8C10.4139 46 10.6139 45.4 10.8139 44.8C13.0139 38.6 19.0139 34.4 25.6139 34.4H153.814C160.014 34.4 165.214 38.8 166.214 44.8C166.214 45 166.414 45.2 166.414 45.4L167.614 53.2L169.214 64C169.214 68.4 165.614 72.2 161.014 72.2H3.81387L8.61388 53.2V53.2Z" fill="#ABBD81"/>
<path d="M157.814 44.6H165.814C166.414 44.6 166.814 45 166.814 45.4L167.814 52.2C167.814 52.8 167.414 53.2 167.014 53.2H157.814C155.614 53.2 154.014 51.6 154.014 49.4V48.4C154.014 46.4 155.814 44.6 157.814 44.6Z" fill="#E15B64"/>
<path d="M9.61383 45.6C9.81383 45 10.2138 44.6 10.8138 44.6H16.8138C18.4138 44.6 19.6138 45.8 19.6138 47.2V50.4C19.6138 51.8 18.4138 53 16.8138 53H9.21382C8.41382 53 7.61382 52.2 8.01382 51.4L9.61383 45.6Z" fill="#E0E0E0"/>
<path d="M4.21384 63.2H169.014C169.014 63.2 169.814 63.2 169.814 64C169.814 68.8 166.414 72.2 161.414 72.2H4.41385C2.01385 72.2 0.0138397 70.2 0.0138397 67.8C-0.18616 65.2 1.81384 63.2 4.21384 63.2V63.2Z" fill="#849B87"/>
<path d="M137.014 82.8C128.73 82.8 122.014 76.0843 122.014 67.8C122.014 59.5157 128.73 52.8 137.014 52.8C145.298 52.8 152.014 59.5157 152.014 67.8C152.014 76.0843 145.298 82.8 137.014 82.8Z" fill="white"/>
<path d="M137.014 55.8C130.414 55.8 125.014 61.2 125.014 67.8C125.014 74.4 130.414 79.8 137.014 79.8C143.614 79.8 149.014 74.4 149.014 67.8C149.014 61.2 143.614 55.8 137.014 55.8M137.014 49.8C147.014 49.8 155.014 57.8 155.014 67.8C155.014 77.8 147.014 85.8 137.014 85.8C127.014 85.8 119.014 77.8 119.014 67.8C119.014 58 127.214 49.8 137.014 49.8Z" fill="#333333"/>
<path d="M137.014 75.8C132.596 75.8 129.014 72.2183 129.014 67.8C129.014 63.3817 132.596 59.8 137.014 59.8C141.432 59.8 145.014 63.3817 145.014 67.8C145.014 72.2183 141.432 75.8 137.014 75.8Z" fill="#E6E6E6"/>
<path d="M41.8138 82.8C33.5296 82.8 26.8138 76.0843 26.8138 67.8C26.8138 59.5157 33.5296 52.8 41.8138 52.8C50.0981 52.8 56.8138 59.5157 56.8138 67.8C56.8138 76.0843 50.0981 82.8 41.8138 82.8Z" fill="white"/>
<path d="M41.8138 55.8C35.2138 55.8 29.8138 61.2 29.8138 67.8C29.8138 74.4 35.2138 79.8 41.8138 79.8C48.4138 79.8 53.8138 74.4 53.8138 67.8C53.8138 61.2 48.4138 55.8 41.8138 55.8M41.8138 49.8C51.8138 49.8 59.8138 57.8 59.8138 67.8C59.8138 77.8 51.8138 85.8 41.8138 85.8C31.8138 85.8 23.8138 77.8 23.8138 67.8C23.8138 58 31.8138 49.8 41.8138 49.8Z" fill="#333333"/>
<path d="M41.8138 75.8C37.3956 75.8 33.8138 72.2183 33.8138 67.8C33.8138 63.3817 37.3956 59.8 41.8138 59.8C46.2321 59.8 49.8138 63.3817 49.8138 67.8C49.8138 72.2183 46.2321 75.8 41.8138 75.8Z" fill="#E6E6E6"/>
<path d="M58.2138 10.8C62.4138 4.2 70.0138 0 78.2138 0H126.614C135.014 0 142.414 5.2 144.614 12.8L153.614 35H141.614L134.614 17.6C133.014 11.6 127.214 7.4 120.414 7.4H109.614V34.8H100.614V7.6H82.2138C75.6138 7.6 69.6138 10.8 66.4138 16L53.6138 35H41.6138L58.2138 10.8Z" fill="#ABBD81"/>
<path d="M68.6139 57.2H108.414C110.414 57.2 112.014 55.6 112.014 53.6C112.014 51.6 110.414 50 108.414 50H68.6139C66.6139 50 65.0139 51.6 65.0139 53.6C65.0139 55.4 66.6139 57.2 68.6139 57.2Z" fill="#849B87"/>
</svg>
