<svg width="74" height="74" viewBox="0 0 74 74" fill="none" xmlns="http://www.w3.org/2000/svg">
<g clip-path="url(#clip0_2_23)">
<path d="M58.6896 45.5058C60.9089 45.5058 62.7143 47.3112 62.7143 49.5304C62.7143 51.7497 60.9089 53.5551 58.6896 53.5551C56.4704 53.5551 54.665 51.7496 54.665 49.5304C54.665 47.3113 56.4704 45.5058 58.6896 45.5058ZM58.6896 51.1441C59.5795 51.1441 60.3033 50.4201 60.3033 49.5304C60.3033 48.6408 59.5795 47.9168 58.6896 47.9168C57.7998 47.9168 57.076 48.6406 57.076 49.5304C57.076 50.4203 57.7998 51.1441 58.6896 51.1441Z" fill="#333333"/>
<path d="M16.6155 45.5058C18.8348 45.5058 20.6404 47.3112 20.6404 49.5304C20.6404 51.7497 18.8348 53.5551 16.6155 53.5551C14.3964 53.5551 12.5911 51.7496 12.5911 49.5304C12.5911 47.3113 14.3964 45.5058 16.6155 45.5058ZM16.6155 51.1441C17.5054 51.1441 18.2293 50.4201 18.2293 49.5304C18.2293 48.6408 17.5054 47.9168 16.6155 47.9168C15.7259 47.9168 15.0021 48.6406 15.0021 49.5304C15.0021 50.4203 15.7259 51.1441 16.6155 51.1441Z" fill="#333333"/>
<path d="M8.22274 31.5718L18.9787 30.343L24.7192 21.0113C26.472 18.1618 29.6393 16.3916 32.9848 16.3916H52.5135C58.1272 16.3916 63.0886 20.1718 64.5788 25.5846L64.7312 26.1383C65.4717 28.8279 67.5995 30.9687 70.2844 31.7258C72.472 32.3427 74 34.3609 74 36.6338V49.9768C74 50.6426 73.4603 51.1823 72.7945 51.1823H66.597C65.8324 54.8468 62.5777 57.6082 58.6896 57.6082C54.8016 57.6082 51.5469 54.8468 50.7823 51.1823H24.5229C23.7583 54.8468 20.5036 57.6082 16.6155 57.6082C12.7275 57.6082 9.47278 54.8468 8.70816 51.1823H2.20208C1.58919 51.1823 1.07372 50.7225 1.00428 50.1134L0.0601146 41.8383C-0.519176 36.7586 3.14238 32.153 8.22274 31.5718ZM71.589 47.3065H66.4536C66.5891 47.7787 66.6835 48.2682 66.7307 48.7713H71.589V47.3065ZM58.6896 55.1972C61.8143 55.1972 64.3564 52.6551 64.3564 49.5304C64.3564 46.4057 61.8143 43.8636 58.6896 43.8636C55.5649 43.8636 53.0229 46.4057 53.0229 49.5304C53.0229 52.6551 55.5649 55.1972 58.6896 55.1972ZM16.6155 55.1972C19.7402 55.1972 22.2823 52.6551 22.2823 49.5304C22.2823 46.4057 19.7402 43.8636 16.6155 43.8636C13.4908 43.8636 10.9488 46.4057 10.9488 49.5304C10.9488 52.6551 13.4908 55.1972 16.6155 55.1972ZM16.6155 41.4525C19.346 41.4525 21.7624 42.8156 23.2253 44.8955H44.6778C45.3436 44.8955 45.8834 45.4352 45.8834 46.101C45.8834 46.7668 45.3436 47.3065 44.6778 47.3065H24.3795C24.515 47.7787 24.6094 48.2682 24.6567 48.7713H50.6485C51.0325 44.6719 54.4915 41.4525 58.6896 41.4525C61.42 41.4525 63.8365 42.8156 65.2994 44.8955H71.589V36.6338C71.589 35.4356 70.7834 34.3715 69.6301 34.0463C66.1376 33.0617 63.3699 30.2768 62.4066 26.7782L62.2543 26.2245C61.0513 21.8547 57.0456 18.8027 52.5135 18.8027H32.9848C30.4704 18.8027 28.0901 20.1331 26.7729 22.2745L20.7251 32.1058C20.5311 32.4211 20.2028 32.6298 19.8351 32.6719L8.49663 33.9672C5.92454 34.2616 3.84447 35.9499 2.92394 38.1907H6.68724C7.353 38.1907 7.89275 38.7305 7.89275 39.3962C7.89275 40.062 7.353 40.6018 6.68724 40.6018H2.41521C2.40685 40.9192 2.41891 41.2407 2.45588 41.565L2.83586 44.8955H10.0059C11.4686 42.8156 13.8853 41.4525 16.6155 41.4525ZM8.57459 48.7713C8.62169 48.2682 8.7162 47.7787 8.8517 47.3065H3.11087L3.27804 48.7713H8.57459Z" fill="#333333"/>
<path d="M32.9217 34.5938H35.4549C36.1206 34.5938 36.6604 35.1335 36.6604 35.7993C36.6604 36.4651 36.1206 37.0048 35.4549 37.0048H32.9217C32.2559 37.0048 31.7161 36.4651 31.7161 35.7993C31.7161 35.1335 32.2557 34.5938 32.9217 34.5938Z" fill="#333333"/>
<path d="M49.1108 35.7993C49.1108 35.1335 49.6505 34.5938 50.3163 34.5938H52.8495C53.5152 34.5938 54.055 35.1335 54.055 35.7993C54.055 36.4651 53.5152 37.0048 52.8495 37.0048H50.3163C49.6505 37.0048 49.1108 36.4651 49.1108 35.7993Z" fill="#333333"/>
<path d="M47.6175 45.6394C47.8287 45.139 48.3662 44.8246 48.9074 44.9087C49.3975 44.9848 49.795 45.3536 49.9061 45.8371C50.1465 46.8835 48.9335 47.6958 48.0512 47.0955C47.5843 46.7779 47.4022 46.161 47.6175 45.6394C47.587 45.7133 47.6481 45.567 47.6175 45.6394Z" fill="#333333"/>
<path d="M28.0274 23.048C29.0772 21.3383 30.9766 20.2761 32.9847 20.2761H52.514C56.3857 20.2761 59.8067 22.8828 60.8338 26.616L60.9854 27.1686C61.3821 28.6082 61.9929 31.0809 62.0188 31.1856C62.1077 31.5453 62.026 31.9259 61.7976 32.2178C61.569 32.5095 61.2191 32.6801 60.8485 32.6801H24.2587C23.8219 32.6801 23.4193 32.444 23.2063 32.0627C22.9932 31.6814 23.003 31.2148 23.2319 30.8429L28.0274 23.048ZM41.9571 22.687V30.2687H53.0565V22.7113C52.8773 22.6955 52.6965 22.687 52.514 22.687H41.9571ZM58.6607 27.8075L58.509 27.2545C58.0493 25.5836 56.9233 24.2264 55.4675 23.4375V30.2686H59.3036C59.1003 29.4662 58.852 28.5021 58.6607 27.8075ZM39.546 30.2687V22.687H32.9847C31.8087 22.687 30.6966 23.3087 30.0815 24.3104L26.4156 30.2687H39.546V30.2687Z" fill="#333333"/>
</g>
<defs>
<clipPath id="clip0_2_23">
<rect width="74" height="74" fill="white" transform="matrix(-1 0 0 1 74 0)"/>
</clipPath>
</defs>
</svg>
